<mxfile host="app.diagrams.net" modified="2021-05-06T04:45:38.147Z" agent="5.0 (Windows NT 10.0; Win64; x64) AppleWebKit/537.36 (KHTML, like Gecko) Chrome/90.0.4430.93 Safari/537.36" etag="kS43B5S0DYji40OuHKBu" version="14.6.10" type="github">
  <diagram name="Page-1" id="e7e014a7-5840-1c2e-5031-d8a46d1fe8dd">
    <mxGraphModel dx="1038" dy="580" grid="1" gridSize="10" guides="1" tooltips="1" connect="1" arrows="1" fold="1" page="1" pageScale="1" pageWidth="1169" pageHeight="826" background="#ffffff" math="0" shadow="0">
      <root>
        <mxCell id="0" />
        <mxCell id="1" parent="0" />
        <mxCell id="kIDNEu0PLau3PF2GUEdE-64" style="edgeStyle=none;rounded=0;orthogonalLoop=1;jettySize=auto;html=1;" edge="1" parent="1" source="kIDNEu0PLau3PF2GUEdE-41" target="kIDNEu0PLau3PF2GUEdE-42">
          <mxGeometry relative="1" as="geometry" />
        </mxCell>
        <mxCell id="kIDNEu0PLau3PF2GUEdE-65" style="edgeStyle=none;rounded=0;orthogonalLoop=1;jettySize=auto;html=1;" edge="1" parent="1" source="kIDNEu0PLau3PF2GUEdE-41" target="kIDNEu0PLau3PF2GUEdE-47">
          <mxGeometry relative="1" as="geometry" />
        </mxCell>
        <mxCell id="kIDNEu0PLau3PF2GUEdE-66" style="edgeStyle=none;rounded=0;orthogonalLoop=1;jettySize=auto;html=1;entryX=0;entryY=0.5;entryDx=0;entryDy=0;" edge="1" parent="1" source="kIDNEu0PLau3PF2GUEdE-41" target="kIDNEu0PLau3PF2GUEdE-48">
          <mxGeometry relative="1" as="geometry" />
        </mxCell>
        <mxCell id="kIDNEu0PLau3PF2GUEdE-68" style="edgeStyle=none;rounded=0;orthogonalLoop=1;jettySize=auto;html=1;entryX=0;entryY=0.5;entryDx=0;entryDy=0;" edge="1" parent="1" source="kIDNEu0PLau3PF2GUEdE-41" target="kIDNEu0PLau3PF2GUEdE-56">
          <mxGeometry relative="1" as="geometry" />
        </mxCell>
        <mxCell id="kIDNEu0PLau3PF2GUEdE-69" style="edgeStyle=none;rounded=0;orthogonalLoop=1;jettySize=auto;html=1;entryX=0;entryY=0.5;entryDx=0;entryDy=0;" edge="1" parent="1" source="kIDNEu0PLau3PF2GUEdE-41" target="kIDNEu0PLau3PF2GUEdE-57">
          <mxGeometry relative="1" as="geometry" />
        </mxCell>
        <mxCell id="kIDNEu0PLau3PF2GUEdE-41" value="用户" style="shape=umlActor;verticalLabelPosition=bottom;verticalAlign=top;html=1;outlineConnect=0;" vertex="1" parent="1">
          <mxGeometry x="190" y="430" width="30" height="60" as="geometry" />
        </mxCell>
        <mxCell id="kIDNEu0PLau3PF2GUEdE-45" value="" style="swimlane;startSize=0;" vertex="1" parent="1">
          <mxGeometry x="325" y="230" width="575" height="790" as="geometry" />
        </mxCell>
        <mxCell id="kIDNEu0PLau3PF2GUEdE-53" style="rounded=0;orthogonalLoop=1;jettySize=auto;html=1;dashed=1;" edge="1" parent="kIDNEu0PLau3PF2GUEdE-45" source="kIDNEu0PLau3PF2GUEdE-47" target="kIDNEu0PLau3PF2GUEdE-49">
          <mxGeometry relative="1" as="geometry" />
        </mxCell>
        <mxCell id="kIDNEu0PLau3PF2GUEdE-55" style="edgeStyle=none;rounded=0;orthogonalLoop=1;jettySize=auto;html=1;dashed=1;" edge="1" parent="kIDNEu0PLau3PF2GUEdE-45" source="kIDNEu0PLau3PF2GUEdE-47" target="kIDNEu0PLau3PF2GUEdE-54">
          <mxGeometry relative="1" as="geometry" />
        </mxCell>
        <mxCell id="kIDNEu0PLau3PF2GUEdE-47" value="关注" style="ellipse;whiteSpace=wrap;html=1;" vertex="1" parent="kIDNEu0PLau3PF2GUEdE-45">
          <mxGeometry x="175" y="190" width="120" height="80" as="geometry" />
        </mxCell>
        <mxCell id="kIDNEu0PLau3PF2GUEdE-42" value="身份认证" style="ellipse;whiteSpace=wrap;html=1;" vertex="1" parent="kIDNEu0PLau3PF2GUEdE-45">
          <mxGeometry x="155" y="60" width="120" height="80" as="geometry" />
        </mxCell>
        <mxCell id="kIDNEu0PLau3PF2GUEdE-48" value="接受关注事件" style="ellipse;whiteSpace=wrap;html=1;" vertex="1" parent="kIDNEu0PLau3PF2GUEdE-45">
          <mxGeometry x="175" y="310" width="120" height="80" as="geometry" />
        </mxCell>
        <mxCell id="kIDNEu0PLau3PF2GUEdE-49" value="关注用户" style="ellipse;whiteSpace=wrap;html=1;" vertex="1" parent="kIDNEu0PLau3PF2GUEdE-45">
          <mxGeometry x="385" y="160" width="120" height="80" as="geometry" />
        </mxCell>
        <mxCell id="kIDNEu0PLau3PF2GUEdE-54" value="关注代码库" style="ellipse;whiteSpace=wrap;html=1;" vertex="1" parent="kIDNEu0PLau3PF2GUEdE-45">
          <mxGeometry x="385" y="270" width="120" height="80" as="geometry" />
        </mxCell>
        <mxCell id="kIDNEu0PLau3PF2GUEdE-56" value="搜索代码库" style="ellipse;whiteSpace=wrap;html=1;" vertex="1" parent="kIDNEu0PLau3PF2GUEdE-45">
          <mxGeometry x="155" y="420" width="120" height="80" as="geometry" />
        </mxCell>
        <mxCell id="kIDNEu0PLau3PF2GUEdE-61" style="edgeStyle=none;rounded=0;orthogonalLoop=1;jettySize=auto;html=1;dashed=1;" edge="1" parent="kIDNEu0PLau3PF2GUEdE-45" source="kIDNEu0PLau3PF2GUEdE-57" target="kIDNEu0PLau3PF2GUEdE-58">
          <mxGeometry relative="1" as="geometry" />
        </mxCell>
        <mxCell id="kIDNEu0PLau3PF2GUEdE-62" style="edgeStyle=none;rounded=0;orthogonalLoop=1;jettySize=auto;html=1;dashed=1;" edge="1" parent="kIDNEu0PLau3PF2GUEdE-45" source="kIDNEu0PLau3PF2GUEdE-57" target="kIDNEu0PLau3PF2GUEdE-59">
          <mxGeometry relative="1" as="geometry" />
        </mxCell>
        <mxCell id="kIDNEu0PLau3PF2GUEdE-63" style="edgeStyle=none;rounded=0;orthogonalLoop=1;jettySize=auto;html=1;dashed=1;" edge="1" parent="kIDNEu0PLau3PF2GUEdE-45" source="kIDNEu0PLau3PF2GUEdE-57" target="kIDNEu0PLau3PF2GUEdE-60">
          <mxGeometry relative="1" as="geometry" />
        </mxCell>
        <mxCell id="kIDNEu0PLau3PF2GUEdE-57" value="浏览代码库" style="ellipse;whiteSpace=wrap;html=1;" vertex="1" parent="kIDNEu0PLau3PF2GUEdE-45">
          <mxGeometry x="95" y="530" width="120" height="80" as="geometry" />
        </mxCell>
        <mxCell id="kIDNEu0PLau3PF2GUEdE-58" value="浏览代码库被关注数" style="ellipse;whiteSpace=wrap;html=1;" vertex="1" parent="kIDNEu0PLau3PF2GUEdE-45">
          <mxGeometry x="315" y="520" width="120" height="80" as="geometry" />
        </mxCell>
        <mxCell id="kIDNEu0PLau3PF2GUEdE-59" value="查看提交详情" style="ellipse;whiteSpace=wrap;html=1;" vertex="1" parent="kIDNEu0PLau3PF2GUEdE-45">
          <mxGeometry x="315" y="610" width="120" height="80" as="geometry" />
        </mxCell>
        <mxCell id="kIDNEu0PLau3PF2GUEdE-60" value="查看代码详情" style="ellipse;whiteSpace=wrap;html=1;" vertex="1" parent="kIDNEu0PLau3PF2GUEdE-45">
          <mxGeometry x="165" y="680" width="120" height="80" as="geometry" />
        </mxCell>
        <mxCell id="kIDNEu0PLau3PF2GUEdE-67" style="edgeStyle=none;rounded=0;orthogonalLoop=1;jettySize=auto;html=1;exitX=0.5;exitY=0.5;exitDx=0;exitDy=0;exitPerimeter=0;" edge="1" parent="1" source="kIDNEu0PLau3PF2GUEdE-41" target="kIDNEu0PLau3PF2GUEdE-41">
          <mxGeometry relative="1" as="geometry" />
        </mxCell>
      </root>
    </mxGraphModel>
  </diagram>
</mxfile>
